<svg xmlns="http://www.w3.org/2000/svg" viewBox="0 0 32 32"><g fill="#787878"><path d="M20.5 15.4c-1.2 0-2.1.9-2.1 2.1s.9 2.1 2.1 2.1 2.1-.9 2.1-2.1-.9-2.1-2.1-2.1zm0 3.6c-.8 0-1.5-.7-1.5-1.5s.7-1.5 1.5-1.5 1.5.7 1.5 1.5-.7 1.5-1.5 1.5zM11.5 15.4c-1.2 0-2.1.9-2.1 2.1s.9 2.1 2.1 2.1 2.1-.9 2.1-2.1-.9-2.1-2.1-2.1zm0 3.6c-.8 0-1.5-.7-1.5-1.5s.7-1.5 1.5-1.5 1.5.7 1.5 1.5-.7 1.5-1.5 1.5z"/><path d="M31.3 2.9c-1.4 0-2.2-.8-2.2-2.2 0-.4-.3-.7-.7-.7-.4 0-.7.3-.7.7 0 .8.2 1.5.5 2.1l-1.9 2C24.8 3.6 22.8 3 20.4 3h-8.7c-2.5 0-4.5.6-6 1.8l-1.9-2c.4-.6.5-1.3.5-2.1C4.4.3 4 0 3.6 0c-.4 0-.7.3-.7.7 0 1.4-.8 2.2-2.2 2.2-.4 0-.7.3-.7.7 0 .4.3.8.7.8.8 0 1.5-.2 2.1-.5l2 1.9C3.6 7.2 3 9.2 3 11.6V24c0 2.8 2.2 5 5 5h16c2.8 0 5-2.2 5-5V11.6c0-2.5-.6-4.4-1.8-5.9l1.9-1.9c.6.4 1.3.5 2.1.5.5.1.8-.3.8-.7s-.3-.7-.7-.7zM11.5 21C9.6 21 8 19.4 8 17.5S9.6 14 11.5 14s3.5 1.6 3.5 3.5-1.6 3.5-3.5 3.5zm9 0c-1.9 0-3.5-1.6-3.5-3.5s1.6-3.5 3.5-3.5 3.5 1.6 3.5 3.5-1.6 3.5-3.5 3.5z"/></g></svg>
