<svg width="640" height="480" viewBox="0 0 640 480" fill="none" xmlns="http://www.w3.org/2000/svg">
<path fill-rule="evenodd" clip-rule="evenodd" d="M120 0H40L0 40L34.4896 74.4896L46.5104 62.4688L24.0416 40L47.0416 17H112.958L130.469 34.5104L142.49 22.4896L120 0Z" transform="scale(4)" fill="#F64242"/>
<path fill-rule="evenodd" clip-rule="evenodd" d="M50.1681 9.43159V12.1767H56.5L56.5 17.0474H39.4526L39.4526 12.1767H45.7845V9.43158L39.4526 3.09968V0H42.5523L47.9763 5.42403L53.4003 1.07896e-05L56.5 -1.07896e-05L56.5 3.0997L50.1681 9.43159ZM39.4526 19.4828L39.4526 35.556L56.5 35.556L56.5 19.4828L52.1164 19.4828L52.1164 30.6854L43.8362 30.6854L43.8362 19.4828L39.4526 19.4828ZM17.0474 95.9526H0L5.3948e-06 113H17.0474V102.284H12.1767V108.616H4.87069V100.336H17.0474V95.9526ZM36.5302 95.9526L19.4828 95.9526L19.4828 113H36.5302V108.616H24.3535V106.668H36.5302V102.284H24.3535V100.336H36.5302V95.9526ZM38.9655 93.0302V76.9569H43.3491L43.3491 88.1595H51.6293L51.6293 76.9569H56.0129L56.0129 93.0302H38.9655ZM38.9655 74.5215L38.9655 69.6508H45.2974L45.2974 62.3448H38.9655L38.9655 57.4741L56.013 57.4741L56.0129 62.3448H49.681L49.681 69.6508L56.0129 69.6509V74.5215H38.9655ZM39.4526 37.9914L39.4526 55.0388L56.5 55.0388L56.5 37.9914L52.1164 37.9914L52.1164 50.1681L50.1681 50.1681L50.1681 37.9914L45.7845 37.9914L45.7845 50.1681L43.8362 50.1681L43.8362 37.9914L39.4526 37.9914ZM56.0129 113V95.9526H38.9655L38.9655 113H43.8362V100.336H45.2974V113H49.681V100.336L51.1422 100.336L51.1422 113H56.0129Z" transform="translate(481.193 0.799805) scale(4) rotate(45)" fill="#F64242"/>
</svg>
